<svg width="16" height="14" viewBox="0 0 16 14" fill="none" xmlns="http://www.w3.org/2000/svg">
<path d="M5.03344 13.5001C11.0697 13.5001 14.3722 8.49786 14.3722 4.1613C14.3722 4.02068 14.3691 3.87693 14.3628 3.7363C15.0052 3.2717 15.5597 2.69623 16 2.03693C15.4017 2.30313 14.7664 2.47698 14.1159 2.55255C14.8009 2.142 15.3137 1.49704 15.5594 0.737239C14.915 1.1191 14.2104 1.38847 13.4756 1.5338C12.9806 1.00777 12.326 0.659472 11.6131 0.542762C10.9003 0.426051 10.1688 0.547428 9.53183 0.888125C8.89486 1.22882 8.38787 1.76986 8.08923 2.4276C7.7906 3.08534 7.71695 3.82314 7.87969 4.52693C6.575 4.46145 5.29862 4.12253 4.13332 3.53213C2.96802 2.94172 1.9398 2.11302 1.11531 1.09974C0.696266 1.82222 0.568038 2.67716 0.756687 3.49079C0.945337 4.30442 1.43671 5.01569 2.13094 5.48005C1.60975 5.4635 1.09998 5.32318 0.64375 5.07068V5.1113C0.643283 5.86949 0.905399 6.60445 1.38554 7.19124C1.86568 7.77803 2.53422 8.18044 3.2775 8.33005C2.7947 8.46215 2.28799 8.48139 1.79656 8.3863C2.0063 9.03835 2.41438 9.60865 2.96385 10.0176C3.51331 10.4266 4.17675 10.6538 4.86156 10.6676C3.69895 11.5808 2.26278 12.0761 0.784375 12.0738C0.522191 12.0734 0.260266 12.0573 0 12.0257C1.5019 12.9892 3.24902 13.501 5.03344 13.5001Z" fill="#FFD2A4"/>
</svg>
