<svg width="16" height="16" viewBox="0 0 16 16" fill="none" xmlns="http://www.w3.org/2000/svg">
<path fill-rule="evenodd" clip-rule="evenodd" d="M8.00004 1.33331C4.31964 1.33331 1.33337 4.31958 1.33337 7.99998C1.33337 11.6804 4.31964 14.6666 8.00004 14.6666C11.6732 14.6666 14.6667 11.6804 14.6667 7.99998C14.6667 4.31958 11.6732 1.33331 8.00004 1.33331ZM12.4035 4.40634C13.1989 5.37525 13.6761 6.6117 13.6906 7.94937C13.5026 7.91321 11.6226 7.52999 9.72817 7.76859C9.68479 7.67461 9.64863 7.57337 9.60525 7.47214C9.48956 7.19738 9.3594 6.91538 9.22925 6.64785C11.3261 5.79463 12.2806 4.56542 12.4035 4.40634ZM8.00004 2.31668C9.44617 2.31668 10.7694 2.85898 11.7744 3.74835C11.6732 3.89297 10.8128 5.04265 8.78819 5.80186C7.85543 4.08819 6.82144 2.68545 6.66237 2.46853C7.08897 2.3673 7.53728 2.31668 8.00004 2.31668ZM5.57777 2.85175C5.72961 3.05421 6.74191 4.46419 7.68912 6.1417C5.02824 6.8503 2.67828 6.83585 2.4252 6.83585C2.79396 5.07157 3.98703 3.60374 5.57777 2.85175ZM2.30228 8.00721C2.30228 7.94937 2.30228 7.89153 2.30228 7.83367C2.54812 7.8409 5.31024 7.87706 8.15188 7.02385C8.31819 7.34199 8.47003 7.66737 8.61464 7.99275C8.54233 8.01445 8.4628 8.03614 8.39049 8.05782C5.45485 9.00505 3.89303 11.5936 3.76288 11.8105C2.85904 10.8055 2.30228 9.46781 2.30228 8.00721ZM8.00004 13.6977C6.68407 13.6977 5.46931 13.2494 4.50763 12.4974C4.60887 12.2878 5.76577 10.0607 8.97617 8.93997C8.99064 8.93274 8.99787 8.93274 9.01233 8.9255C9.81493 11.0007 10.1403 12.7433 10.2271 13.2422C9.54017 13.5387 8.78819 13.6977 8.00004 13.6977ZM11.1743 12.7216C11.1165 12.3745 10.8128 10.7115 10.068 8.66521C11.854 8.38321 13.4158 8.84597 13.611 8.91105C13.3652 10.4946 12.4541 11.8612 11.1743 12.7216Z" fill="#FFD2A4"/>
</svg>
